<?xml version="1.0" encoding="UTF-8"?>
<svg xmlns="http://www.w3.org/2000/svg" xmlns:xlink="http://www.w3.org/1999/xlink" width="518.73pt" height="137.28pt" viewBox="0 0 518.73 137.28" version="1.1">
<g id="surface1">
<path style=" stroke:none;fill-rule:nonzero;fill:rgb(0%,57.299805%,86.698914%);fill-opacity:1;" d="M 498.710938 68.929688 L 481.554688 68.929688 C 479.890625 68.929688 478.550781 70.277344 478.550781 71.933594 L 478.550781 101.550781 C 478.550781 103.207031 477.203125 104.554688 475.542969 104.554688 L 427.460938 104.554688 C 425.796875 104.554688 424.453125 103.207031 424.453125 101.550781 L 424.453125 71.933594 C 424.453125 70.277344 423.109375 68.929688 421.453125 68.929688 L 405.683594 68.929688 C 404.023438 68.929688 403.605469 67.957031 404.746094 66.75 L 450.125 19.007813 C 451.269531 17.800781 453.121094 17.800781 454.265625 19.007813 L 499.644531 66.75 C 500.785156 67.957031 500.367188 68.929688 498.710938 68.929688 M 294.484375 90.707031 L 264.460938 90.925781 C 263.335938 90.9375 261.894531 91.6875 261.183594 92.554688 C 254.734375 100.417969 245.683594 104.546875 234.542969 104.546875 C 224.339844 104.546875 215.988281 100.730469 209.125 93.867188 C 202.261719 87.003906 198.917969 78.46875 198.917969 68.261719 C 198.917969 58.429688 202.445313 50.269531 209.308594 43.59375 C 216.355469 36.914063 224.71875 33.574219 234.542969 33.574219 C 245.566406 33.574219 254.773438 37.867188 262.011719 46.285156 C 262.746094 47.140625 264.214844 47.863281 265.339844 47.863281 L 294.484375 47.863281 Z M 450.15625 0.0546875 C 429.839844 0.0546875 411.59375 8.898438 399.035156 22.933594 L 399.035156 5.058594 C 399.027344 2.8125 396.738281 3.03125 396.738281 3.03125 L 366.25 3.03125 C 365.128906 3.03125 364.214844 3.941406 364.214844 5.066406 L 364.214844 50.640625 C 364.214844 51.769531 363.300781 52.675781 362.179688 52.675781 L 331.398438 52.675781 C 330.273438 52.675781 329.359375 51.769531 329.359375 50.640625 L 329.359375 5.066406 C 329.359375 3.941406 328.449219 3.03125 327.324219 3.03125 L 296.523438 3.03125 C 295.394531 3.03125 294.484375 3.941406 294.484375 5.066406 L 294.484375 30.933594 C 289.105469 23.050781 283.429688 16.867188 277.402344 12.429688 C 266.089844 4.074219 251.980469 -0.00390625 234.914063 -0.00390625 C 215.433594 -0.00390625 198.730469 6.488281 184.820313 19.296875 C 175.058594 28.296875 168.601563 38.6875 165.488281 50.523438 C 165.199219 51.609375 164.085938 52.496094 162.964844 52.496094 L 125.832031 52.496094 C 124.710938 52.496094 123.800781 51.589844 123.800781 50.460938 L 123.800781 35.539063 C 123.800781 34.410156 124.710938 33.5 125.832031 33.5 L 167.835938 33.5 C 168.964844 33.5 169.871094 32.589844 169.871094 31.464844 L 169.789063 5.066406 C 169.785156 3.941406 168.867188 3.03125 167.746094 3.03125 L 2.035156 2.984375 C 0.910156 2.984375 0 3.894531 0 5.015625 L 0 31.464844 C 0 32.589844 0.910156 33.5 2.035156 33.5 L 28.640625 33.5 C 29.757813 33.5 30.675781 34.410156 30.675781 35.539063 L 30.675781 132.289063 C 30.675781 133.417969 31.585938 134.332031 32.710938 134.332031 L 63.332031 134.332031 C 64.457031 134.332031 65.363281 133.417969 65.363281 132.289063 L 65.363281 35.539063 C 65.363281 34.410156 66.277344 33.5 67.402344 33.5 L 87.59375 33.5 C 88.71875 33.5 89.632813 34.410156 89.632813 35.539063 L 89.632813 132.367188 C 89.632813 133.492188 90.539063 134.402344 91.664063 134.402344 L 167.746094 134.402344 C 168.867188 134.402344 169.78125 133.492188 169.78125 132.367188 L 169.78125 105.636719 C 169.78125 104.511719 168.867188 103.601563 167.746094 103.601563 L 125.832031 103.601563 C 124.710938 103.601563 123.800781 102.6875 123.800781 101.5625 L 123.800781 84.589844 C 123.800781 83.460938 124.710938 82.550781 125.832031 82.550781 L 162.628906 82.550781 C 163.753906 82.550781 164.835938 83.449219 165.085938 84.542969 C 167.9375 97.25 174.242188 108.359375 184.074219 117.800781 C 197.804688 130.785156 214.695313 137.28125 234.730469 137.28125 C 251.613281 137.28125 265.527344 133.390625 276.65625 125.40625 C 283.011719 120.738281 288.964844 114.285156 294.484375 106.007813 L 294.484375 132.289063 C 294.484375 133.417969 295.394531 134.332031 296.523438 134.332031 L 327.324219 134.332031 C 328.449219 134.332031 329.359375 133.417969 329.359375 132.289063 L 329.359375 86.625 C 329.359375 85.5 330.273438 84.589844 331.398438 84.589844 L 362.179688 84.589844 C 363.300781 84.589844 364.214844 85.5 364.214844 86.625 L 364.214844 132.289063 C 364.214844 133.417969 365.128906 134.332031 366.25 134.332031 L 397.492188 134.332031 C 397.492188 134.332031 398.996094 134.492188 399.035156 132.953125 L 399.035156 114.328125 C 411.59375 128.367188 429.839844 137.210938 450.15625 137.210938 C 488.027344 137.210938 518.734375 106.507813 518.734375 68.632813 C 518.734375 30.757813 488.027344 0.0546875 450.15625 0.0546875 "/>
</g>
</svg>
